<?xml version="1.0" standalone="no"?>
<!DOCTYPE svg PUBLIC "-//W3C//DTD SVG 20010904//EN"
 "http://www.w3.org/TR/2001/REC-SVG-20010904/DTD/svg10.dtd">
<svg version="1.0" xmlns="http://www.w3.org/2000/svg"
 width="160.000000pt" height="160.000000pt" viewBox="0 0 160.000000 160.000000"
 preserveAspectRatio="xMidYMid meet">
<metadata>
Created by potrace 1.11, written by Peter Selinger 2001-2013
</metadata>
<g transform="translate(0.000000,160.000000) scale(0.100000,-0.100000)"
fill="#000000" stroke="none">
<path d="M757 1593 c-2 -5 -3 -19 -1 -33 28 -237 5 -321 -88 -326 l-41 -2 -48
-118 c-50 -125 -58 -156 -65 -268 -5 -78 -21 -111 -58 -118 -59 -12 -106 47
-109 137 -1 30 -7 56 -12 57 -19 4 -85 -108 -111 -187 -33 -103 -37 -173 -12
-250 17 -50 84 -167 108 -185 9 -8 50 -67 50 -74 0 -12 -32 -6 -70 14 -114 58
45 -89 171 -158 30 -17 84 -41 120 -53 166 -57 417 -14 615 105 27 17 59 36
69 42 34 19 31 37 -4 29 -24 -5 -31 -3 -31 8 0 14 17 35 98 126 17 20 44 61
60 91 24 50 27 65 26 155 -1 108 -19 192 -61 288 -28 63 -43 72 -43 27 0 -44
0 -43 -21 -66 -25 -27 -67 -23 -92 7 -16 20 -17 33 -11 93 21 206 1 276 -111
398 -67 73 -320 274 -328 261z"/>
<path d="M364 1208 c-4 -13 -27 -47 -50 -76 -24 -30 -44 -64 -45 -75 -1 -12
-2 -41 -4 -64 -1 -24 0 -43 3 -43 10 0 76 76 94 109 22 39 38 171 20 171 -6 0
-14 -10 -18 -22z"/>
</g>
</svg>
